# xmcd
#
# Track frame offsets: 
#        182
#        16225
#        30000
#        45140
#        62922
#        81222
#        94825
#        110222
#        125027
#        139967
#        153525
#        177122
#
# Disc length: 2555 seconds
#
# Revision: 8
# Processed by: cddbd v1.5.2PL0 Copyright (c) Steve Scherf et al.
# Submitted via: ExactAudioCopyFreeDBPlugin 1.0
#
DISCID=9709f90c
DTITLE=Tim McGraw - All I Want
DYEAR=1995
DGENRE=Country
TTITLE0=All I Want Is A Life
TTITLE1=She Never Lets It Go To Her Heart
TTITLE2=Can't Be Really Gone
TTITLE3=Maybe We Should Just Sleep On It
TTITLE4=I Didn't Ask And She Didn't Say
TTITLE5=Renegade
TTITLE6=I Like It, I Love It
TTITLE7=The Great Divide
TTITLE8=You Got The Wrong Man
TTITLE9=Don't Mention Memphis
TTITLE10=When She Wakes Up (And Finds Me Gone)
TTITLE11=That's Just Me
EXTD=
EXTT0=
EXTT1=
EXTT2=
EXTT3=
EXTT4=
EXTT5=
EXTT6=
EXTT7=
EXTT8=
EXTT9=
EXTT10=
EXTT11=
PLAYORDER=
